<?xml version="1.0" encoding="utf-8"?>
<svg id="master-artboard" viewBox="0 0 269.8253479003906 290.9638671875" version="1.1" xmlns="http://www.w3.org/2000/svg" x="0px" y="0px" style="enable-background:new 0 0 1096 780;" width="269.8253479003906px" height="290.9638671875px"><rect id="ee-background" x="0" y="0" width="269.8253479003906" height="290.9638671875" style="fill: white; fill-opacity: 0; pointer-events: none;"/><g transform="matrix(2.685904264450073, 0, 0, 2.685904264450073, 2.469888925552368, 6.016528545893038)"><g transform="translate(0,-952.36218)"><path style="text-indent: 0px; text-transform: none; direction: ltr; baseline-shift: baseline; color: rgb(0, 0, 0); fill: rgb(88, 88, 88);" d="m 49.968751,961.36216 c -10.45571,0 -18.96875,8.10425 -18.96875,18.75 0,2.51448 0.66135,5.97213 1.5,8.1875 5.50749,11.48935 11.05971,22.98304 16.59375,34.46874 0.31981,0.6852 1.4927,0.6852 1.8125,0 5.45666,-11.5218 11.18758,-22.93219 16.59375,-34.46874 0.84417,-2.21845 1.5,-5.67333 1.5,-8.1875 -0.0592,-12.03549 -9.79498,-18.74998 -19.03125,-18.75 z m 0,2 c 9.42832,0 17.03125,7.16631 17.03125,16.75 0,2.1064 -0.6431,5.52069 -1.34375,7.40625 -5.43322,11.3295 -10.98675,22.83729 -15.65625,32.53129 -5.14566,-10.8774 -10.55796,-21.63374 -15.65625,-32.53129 -0.6978,-1.88731 -1.34375,-5.30217 -1.34375,-7.40625 0,-9.58665 7.54055,-16.75 16.96875,-16.75 z m 0.03125,7 c -5.5109,0 -10,4.48904 -10,10 0,5.51087 4.48908,10 10,10 5.51103,0 10,-4.48914 10,-10 0,-5.51095 -4.48899,-10 -10,-10 z m 0,2 c 4.43012,0 8,3.56995 8,8 0,4.42994 -3.56989,8 -8,8 -4.42997,0 -8,-3.57007 -8,-8 0,-4.43004 3.57002,-8 8,-8 z m -37,28.99994 c -0.64283,0.01 -1.00024,0.498 -1,1 l 0,40.0001 c 5e-5,0.5236 0.47642,0.9999 1,1 l 73.999998,0 c 0.52358,-10e-5 0.99995,-0.4764 1,-1 l 0,-40.0001 c -5e-5,-0.5235 -0.47642,-0.9999 -1,-1 l -23.562498,0 -0.96875,2 23.531248,0 0,10.0001 -26.906248,0 -0.90625,-1.125 -0.96875,2 21.6875,27.125 -32.4375,0 -13.3125,-16.6563 10.40625,-8.8125 -0.90625,-1.9062 -10.78125,9.125 -15.78125,-19.7501 21.4375,0 -0.96875,-2 -23.5625,0 z m 1,2.5938 29.90625,37.4063 -29.90625,0 0,-37.4063 z m 46.6875,11.4063 25.312498,0 0,12 -15.718748,0 -9.59375,-12 z m 11.1875,14 14.124998,0 0,12 -4.531248,0 -9.59375,-12 z" fill="#000000" fill-opacity="1" stroke="none" marker="none" visibility="visible" display="inline" overflow="visible"/></g><text x="0" y="115" fill="#000000" font-size="5px" font-weight="bold" font-family="'Helvetica Neue', Helvetica, Arial-Unicode, Arial, Sans-serif" style="white-space: pre; fill: rgb(88, 88, 88);">Created by Numero Uno</text><text x="0" y="120" fill="#000000" font-size="5px" font-weight="bold" font-family="'Helvetica Neue', Helvetica, Arial-Unicode, Arial, Sans-serif" style="white-space: pre; fill: rgb(88, 88, 88);">from the Noun Project</text></g></svg>